<?xml version="1.0" encoding="UTF-8"?>
<svg version="1.1" viewBox="0 0 2048 843" width="1280" height="1280" xmlns="http://www.w3.org/2000/svg">
<path transform="translate(608,277)" d="m0 0h39l20 3 22 6 21 11 14 10 7 6 7 8 11 15 8 16 6 18 3 19v26l-4 22-6 16-6 12-9 12-9 11-2 1 2 4 19 19 6 5 8 1 5-1 3 2-2 5-8 7-16 15-8 7-16 15-4-1-1-3 2-5v-6l-6-9-8-10-8-9-6-9-9 2-21 5-15 2h-37l-21-3-18-5-13-6-15-8-10-8-9-8-9-11-8-11-9-20-5-16-2-11-1-20 2-20 4-15 6-16 9-16 11-14 10-10 16-11 15-8 21-7zm5 41-16 4-16 8-9 7-5 4-7 8-9 15-6 18-2 21 3 21 4 12 8 14 12 14 12 9 16 7 17 4h23l11-2 10-3v-4l-16-16-10-7-8-4-11-4 1-4 8-5 9-3 13-1 15 3 16 8 14 10 3 2h3l9-15 6-18 2-15v-10l-2-16-5-15-9-16-13-13-15-10-13-5-12-3z" fill="#020202"/>
<path transform="translate(1216,281)" d="m0 0h149l24 2 19 4 13 5 15 9 11 9 10 11 9 14 8 17 4 17 2 14v37l-3 19-5 16-7 14-10 14-11 12-12 9-19 9-20 5-26 3h-151l-1-3 4-4 6-4 1-1 1-68v-42l-1-105-11-10zm64 40v160l1 1h38l42-1 16-2 12-4 10-5 12-11 7-11 6-16 3-16v-29l-3-16-6-16-8-13-8-7-13-8-11-4-12-2z" fill="#020202"/>
<path transform="translate(323,277)" d="m0 0h36l25 4 21 6 39 15 6-1 5-2h4l-1 6-16 33-10 19-5-1-3-9-8-7-16-9-14-6-19-5-6-1h-35l-14 3-12 5-8 7-4 8-1 9 4 8 9 6 13 3 68 8 25 5 17 7 12 7 10 10 7 11 5 13 2 10v19l-3 12-8 16-8 10-9 8-19 10-20 6-19 4-12 1h-29l-16-2-20-4-21-7-29-12-5-1-8 3h-3l-1-3 11-26 14-32 4-1 4 10 4 7 10 8 12 6 24 8 15 3 8 1h27l15-3 13-5 11-8 5-8 2-8-1-8-4-6-12-5-22-4-67-8-19-5-19-9-12-11-6-8-6-15-2-9v-17l3-14 5-13 6-9 4-5h2v-2l12-9 12-7 18-6 14-3z" fill="#020202"/>
<path transform="translate(798,281)" d="m0 0h77l-2 5-8 6-1 7v135l2 17 7 14 7 6 14 7 15 4 8 1h29l17-3 14-5 12-8 6-10 3-11 1-7v-145l-11-10v-3h73l-2 4-8 7-1 2-1 138-2 28-4 15-4 9-7 11-7 7-15 9-18 7-22 5-19 2h-41l-19-2-19-4-18-6-17-9-7-6-8-10-6-14-4-16-1-11-1-149-2-7-4-2-7-6z" fill="#020202"/>
<path transform="translate(1512,269)" d="m0 0 4 1 7 8 4 2 211 1 1 2-2 9-7 10-15 20-12 17-10 13-14 19-12 16-8 11-12 16-13 18-10 13-14 19-12 16h129l10-11 3 2v35l-1 27-4-1-7-9-2-1-214-1-1-1v-10l5-9 11-14 10-14 14-19 12-16 11-15 10-14 11-14 8-11 10-14 10-13 14-19 10-14 2-3h-122l-5 3-5 8-4 1-1-1z" fill="#020202"/>
<path transform="translate(1097,281)" d="m0 0h77l-1 4-9 7-1 2v213l3 5 8 5v3l-2 1h-74l-1-4 10-7 1-1 1-58v-119l-1-39-10-8z" fill="#050505"/>
</svg>
